<svg width="212" height="32" viewBox="0 0 212 32" fill="none" xmlns="http://www.w3.org/2000/svg">
<g clip-path="url(#clip0_1_2)">
<path d="M48.4123 8.35332L44.7889 15.6381H52.0359L48.4123 8.35332ZM48.4123 11.752L49.589 14.1181H47.2352L48.4119 11.752H48.4123Z" fill="white"/>
<path d="M27.7924 8.35332L24.169 15.6381H31.4161L27.7924 8.35332ZM27.7924 11.752L28.9692 14.1181H26.6154L27.7921 11.752H27.7924Z" fill="white"/>
<path d="M34.8597 9.98968V15.6384H33.3089V9.98968H31.1639V8.55238H37.0046V9.98968H34.8597Z" fill="white"/>
<path d="M38.633 15.6383V8.5523H40.1839V14.2212H43.6983V15.6383H38.6327H38.633Z" fill="white"/>
<path d="M55.7894 15.7337C54.7222 15.7337 53.6444 15.3592 52.7985 14.5999L53.7147 13.4964C54.3493 14.0226 55.014 14.357 55.8194 14.357C56.4537 14.357 56.8365 14.1038 56.8365 13.6889V13.6687C56.8365 13.274 56.5948 13.0712 55.4165 12.7676C53.9966 12.4031 53.0801 12.0084 53.0801 10.6013V10.581C53.0801 9.29552 54.1073 8.44515 55.5474 8.44515C56.5747 8.44515 57.4507 8.76894 58.1658 9.34622L57.36 10.5204C56.7356 10.0849 56.1214 9.8218 55.5273 9.8218C54.9332 9.8218 54.621 10.0949 54.621 10.4392V10.4594C54.621 10.925 54.923 11.0768 56.1415 11.3907C57.5717 11.7651 58.3771 12.2815 58.3771 13.5166V13.5368C58.3771 14.9436 57.3096 15.7333 55.7891 15.7333L55.7894 15.7337Z" fill="white"/>
<path d="M25.7359 22.0816C25.1263 22.0816 24.5109 21.8676 24.0279 21.4343L24.5511 20.8042C24.9131 21.1046 25.2928 21.2956 25.7529 21.2956C26.1153 21.2956 26.3337 21.151 26.3337 20.914V20.9025C26.3337 20.6773 26.1957 20.5613 25.5227 20.388C24.712 20.1799 24.1888 19.9544 24.1888 19.151V19.1395C24.1888 18.4052 24.7751 17.9196 25.5976 17.9196C26.1843 17.9196 26.6846 18.1047 27.093 18.4341L26.6329 19.1047C26.2762 18.8562 25.9253 18.7059 25.5858 18.7059C25.2464 18.7059 25.0685 18.8621 25.0685 19.0587V19.0699C25.0685 19.3361 25.2408 19.4226 25.9367 19.602C26.7533 19.816 27.2134 20.1106 27.2134 20.8157V20.8269C27.2134 21.6309 26.6041 22.0813 25.7356 22.0813L25.7359 22.0816Z" fill="white"/>
<path d="M30.5951 22.0234L29.3472 20.3006L28.8812 20.7864V22.0234H27.9956V17.9765H28.8812V19.7457L30.5147 17.9765H31.5844L29.9453 19.6938L31.6592 22.0234H30.5951Z" fill="white"/>
<path d="M32.4864 22.0234V17.9765H33.3722V22.0234H32.4864Z" fill="white"/>
<path d="M34.6314 22.0234V17.9765H35.5173V21.2138H37.5242V22.0234H34.6314Z" fill="white"/>
<path d="M38.4439 22.0234V17.9765H39.3295V21.2138H41.3364V22.0234H38.4439Z" fill="white"/>
<path d="M43.7459 18.7986V22.0244H42.8603V18.7986H41.6353V17.9775H44.9709V18.7986H43.7459Z" fill="white"/>
<path d="M45.9022 22.0234V17.9765H48.9386V18.7687H46.7819V19.5892H48.6796V20.3811H46.7819V21.2312H48.9671V22.0231H45.9019L45.9022 22.0234Z" fill="white"/>
<path d="M51.8942 22.0935C50.7094 22.0935 49.8294 21.174 49.8294 20.012V20.0008C49.8294 18.8506 50.692 17.9082 51.9285 17.9082C52.6875 17.9082 53.1421 18.1626 53.5159 18.5324L52.9521 19.1859C52.6417 18.9022 52.3255 18.729 51.9226 18.729C51.244 18.729 50.7552 19.2957 50.7552 19.989V20.0005C50.7552 20.6941 51.2323 21.2723 51.9226 21.2723C52.3827 21.2723 52.6646 21.0873 52.9809 20.7986L53.5446 21.3709C53.1306 21.8163 52.6705 22.0938 51.8942 22.0938V22.0935Z" fill="white"/>
<path d="M57.0238 22.0234V20.3989H55.3903V22.0234H54.5044V17.9765H55.3903V19.5777H57.0238V17.9765H57.9094V22.0234H57.0238Z" fill="white"/>
<path d="M25.7429 27.1464C24.766 27.1464 24.1685 26.598 24.1685 25.5225V23.4336H24.9687V25.5016C24.9687 26.097 25.2648 26.4052 25.7531 26.4052C26.2413 26.4052 26.5375 26.1075 26.5375 25.5278V23.4339H27.3376V25.4967C27.3376 26.6039 26.7194 27.147 25.7425 27.147L25.7429 27.1464Z" fill="white"/>
<path d="M30.9323 27.0882L29.171 24.7644V27.0882H28.3814V23.4326H29.1191L30.8231 25.6835V23.4326H31.6127V27.0882H30.9323Z" fill="white"/>
<path d="M32.7495 27.0882V23.4326H33.5497V27.0882H32.7495Z" fill="white"/>
<path d="M36.3048 27.1143H35.5984L34.128 23.4326H35.0114L35.9622 26.0073L36.9131 23.4326H37.7755L36.3051 27.1143H36.3048Z" fill="white"/>
<path d="M38.3169 27.0882V23.4326H41.06V24.148H39.1118V24.8898H40.8261V25.6052H39.1118V26.3728H41.0857V27.0882H38.3169Z" fill="white"/>
<path d="M44.2625 27.0882L43.483 25.9187H42.8546V27.0882H42.0547V23.4326H43.7173C44.5744 23.4326 45.0886 23.887 45.0886 24.6391V24.6494C45.0886 25.2394 44.7718 25.6101 44.3092 25.7825L45.1976 27.0879H44.2625V27.0882ZM44.2783 24.6808C44.2783 24.3361 44.0391 24.1582 43.6495 24.1582H42.8546V25.208H43.665C44.0545 25.208 44.2783 24.999 44.2783 24.691V24.6808Z" fill="white"/>
<path d="M47.3283 27.1403C46.7775 27.1403 46.2218 26.9475 45.7852 26.5556L46.258 25.9864C46.5853 26.2576 46.9282 26.4302 47.3437 26.4302C47.6708 26.4302 47.8685 26.2996 47.8685 26.0856V26.0753C47.8685 25.8719 47.7438 25.7674 47.1361 25.6107C46.4037 25.4225 45.9306 25.2187 45.9306 24.4931V24.4825C45.9306 23.8194 46.4606 23.3808 47.2033 23.3808C47.7333 23.3808 48.1851 23.5479 48.5542 23.8455L48.1383 24.4514C47.8165 24.2269 47.4994 24.0912 47.193 24.0912C46.8867 24.0912 46.7255 24.2321 46.7255 24.4097V24.4203C46.7255 24.6607 46.8811 24.7388 47.5099 24.9009C48.2476 25.094 48.6634 25.3606 48.6634 25.9976V26.0082C48.6634 26.7338 48.1127 27.141 47.3283 27.141V27.1403Z" fill="white"/>
<path d="M49.5982 27.0882V23.4326H50.398V27.0882H49.5982Z" fill="white"/>
<path d="M52.9352 24.1741V27.0882H52.135V24.1741H51.0288V23.4326H54.042V24.1741H52.9352Z" fill="white"/>
<path d="M56.7059 25.631V27.0882H55.906V25.6468L54.5083 23.4326H55.4434L56.3107 24.9L57.1938 23.4326H58.1032L56.7056 25.631H56.7059Z" fill="white"/>
<path d="M20.5439 23.4328L12.0833 18.5225L3.62262 23.4328L12.0833 28.359L20.5439 23.4328Z" fill="#67639F"/>
<path d="M3.62262 8.5519V18.3722L12.0833 23.2826L20.5439 18.3722V8.5519L12.0833 3.64158L3.62262 8.5519Z" fill="#21678B"/>
<path d="M20.5439 8.55159L12.0829 13.4778L3.62262 8.55159L12.0832 3.64158L20.5442 8.5519M12.0832 13.4781V23.2826L20.5442 18.3722V8.55159L12.0832 13.4775V13.4781Z" fill="#3CA7B6"/>
<path d="M16.3182 11.0127L12.0831 23.283L20.544 18.3727L16.3182 11.0127ZM16.7031 15.0832L18.2345 17.7506L15.168 19.5301L16.7028 15.0832H16.7031Z" fill="white"/>
</g>
<line x1="70.5" y1="1" x2="70.5" y2="31" stroke="#C4C4C4"/>
<path d="M78.7466 13V5.06152H83.4678V6.10889H79.9175V8.56348H83.2261V9.59473H79.9175V13H78.7466ZM84.8264 13V7.04346H85.9812V13H84.8264ZM84.7888 6.09814V4.8252H86.0618V6.09814H84.7888ZM88.774 9.5249V13H87.6138V7.04346H88.7418V7.85986C89.0855 7.2959 89.7676 6.92529 90.5303 6.92529C91.7925 6.93066 92.6304 7.77393 92.6304 9.17041V13H91.4703V9.36377C91.4703 8.47217 90.9976 7.94043 90.2134 7.9458C89.397 7.9458 88.774 8.5957 88.774 9.5249ZM96.6854 13.1235C95.0955 13.1235 93.9408 11.856 93.9408 10.0137C93.9408 8.16602 95.0902 6.92529 96.6961 6.93066C97.5609 6.92529 98.2484 7.3335 98.6082 7.88135V7.04346H99.763V13H98.619V12.1353C98.2215 12.71 97.5072 13.1235 96.6854 13.1235ZM95.1439 10.019C95.1439 11.2437 95.8153 12.1138 96.8519 12.1138C97.9046 12.1138 98.6458 11.2598 98.6512 10.0137C98.6512 8.77295 97.9046 7.92432 96.8519 7.92432C95.8045 7.92432 95.1439 8.78906 95.1439 10.019ZM102.556 9.5249V13H101.396V7.04346H102.524V7.85986C102.867 7.2959 103.549 6.92529 104.312 6.92529C105.574 6.93066 106.412 7.77393 106.412 9.17041V13H105.252V9.36377C105.252 8.47217 104.779 7.94043 103.995 7.9458C103.179 7.9458 102.556 8.5957 102.556 9.5249ZM110.666 13.1289C108.888 13.1235 107.701 11.8452 107.701 10.0352C107.701 8.20898 108.877 6.93604 110.607 6.93066C112.121 6.93066 113.233 7.85986 113.394 9.19727H112.181C112.014 8.47217 111.413 7.94043 110.618 7.94043C109.581 7.94043 108.893 8.77832 108.893 10.0244C108.893 11.2866 109.597 12.1191 110.661 12.1191C111.391 12.1191 112.014 11.6465 112.17 10.9268H113.384C113.18 12.2427 112.127 13.1289 110.666 13.1289ZM114.683 13V7.04346H115.838V13H114.683ZM114.646 6.09814V4.8252H115.919V6.09814H114.646ZM119.963 13.1235C118.373 13.1235 117.218 11.856 117.218 10.0137C117.218 8.16602 118.368 6.92529 119.974 6.93066C120.838 6.92529 121.526 7.3335 121.886 7.88135V7.04346H123.04V13H121.896V12.1353C121.499 12.71 120.785 13.1235 119.963 13.1235ZM118.421 10.019C118.421 11.2437 119.093 12.1138 120.129 12.1138C121.182 12.1138 121.923 11.2598 121.929 10.0137C121.929 8.77295 121.182 7.92432 120.129 7.92432C119.082 7.92432 118.421 8.78906 118.421 10.019ZM125.828 4.75537V13H124.673V4.75537H125.828ZM130.409 13V5.06152H133.331C135.001 5.06152 136.049 6.13574 136.049 7.61816C136.049 9.10059 135.001 10.1748 133.336 10.1748H131.607V13H130.409ZM131.607 9.13281H133.229C134.233 9.13281 134.808 8.50977 134.808 7.62354C134.813 6.7373 134.222 6.11426 133.223 6.11426H131.607V9.13281ZM138.465 4.75537V13H137.311V4.75537H138.465ZM142.569 13.1235C140.979 13.1235 139.824 11.856 139.824 10.0137C139.824 8.16602 140.973 6.92529 142.579 6.93066C143.444 6.92529 144.132 7.3335 144.492 7.88135V7.04346H145.646V13H144.502V12.1353C144.105 12.71 143.39 13.1235 142.569 13.1235ZM141.027 10.019C141.027 11.2437 141.699 12.1138 142.735 12.1138C143.788 12.1138 144.529 11.2598 144.535 10.0137C144.535 8.77295 143.788 7.92432 142.735 7.92432C141.688 7.92432 141.027 8.78906 141.027 10.019ZM148.439 9.5249V13H147.279V7.04346H148.407V7.85986C148.751 7.2959 149.433 6.92529 150.195 6.92529C151.458 6.93066 152.296 7.77393 152.296 9.17041V13H151.135V9.36377C151.135 8.47217 150.663 7.94043 149.879 7.9458C149.062 7.9458 148.439 8.5957 148.439 9.5249ZM153.848 13V7.04346H155.002V13H153.848ZM153.81 6.09814V4.8252H155.083V6.09814H153.81ZM157.795 9.5249V13H156.635V7.04346H157.763V7.85986C158.107 7.2959 158.789 6.92529 159.551 6.92529C160.814 6.93066 161.652 7.77393 161.652 9.17041V13H160.491V9.36377C160.491 8.47217 160.019 7.94043 159.235 7.9458C158.418 7.9458 157.795 8.5957 157.795 9.5249ZM166.056 15.4868C164.552 15.4868 163.445 14.7349 163.214 13.6284H164.536C164.761 14.187 165.32 14.5146 166.072 14.5146C167.012 14.5146 167.608 14.042 167.608 13.1396V12.0869C167.173 12.7046 166.464 13.0591 165.647 13.0591C164.095 13.0591 162.946 11.8667 162.951 10.0029C162.951 8.1499 164.149 6.92529 165.669 6.93066C166.48 6.93066 167.167 7.27441 167.613 7.94043V7.04346H168.757V13.1343C168.757 14.6597 167.699 15.4922 166.056 15.4868ZM164.144 10.0029C164.144 11.1899 164.847 12.0708 165.857 12.0708C166.867 12.0708 167.64 11.2007 167.64 10.0029C167.645 8.7998 166.872 7.91895 165.868 7.91895C164.847 7.91895 164.149 8.83203 164.144 10.0029ZM175.927 7.80078C176.346 7.52148 176.599 7.20459 176.599 6.71582C176.599 6.25928 176.244 5.92627 175.745 5.92627C175.218 5.92627 174.832 6.30762 174.837 6.8501C174.832 7.2959 175.208 7.7417 175.498 8.09082L175.927 7.80078ZM172.828 10.8838C172.823 9.90088 173.414 9.20264 174.311 8.69238L174.407 8.63867C173.956 8.06396 173.628 7.5376 173.628 6.8501C173.634 5.71143 174.504 4.92725 175.761 4.92725C177.012 4.92188 177.786 5.68994 177.786 6.71045C177.786 7.4624 177.399 8.07471 176.679 8.55273L176.147 8.90186L177.571 10.6689C177.759 10.2393 177.877 9.70215 177.882 9.14893H179.026C179.01 10.0942 178.758 10.9966 178.328 11.6089L179.445 13H177.963L177.426 12.3394C176.776 12.8818 176.04 13.1504 175.256 13.1504C173.79 13.1504 172.823 12.1943 172.828 10.8838ZM174.064 10.8569C174.064 11.5391 174.585 12.1245 175.385 12.1191C175.89 12.1191 176.389 11.9097 176.787 11.5605L175.052 9.43359L174.907 9.53027C174.343 9.89014 174.064 10.3628 174.064 10.8569ZM78.2041 26L81.1797 18.0615H82.5386L85.5088 26H84.2305L83.4731 23.9053H80.1968L79.4448 26H78.2041ZM80.5781 22.8525H83.0864L81.8242 19.3774L80.5781 22.8525ZM86.6096 28.2773V20.0435H87.7537V20.8921C88.1887 20.2959 88.9622 19.9253 89.7249 19.9253C91.3362 19.9253 92.4427 21.1714 92.4427 23.0298C92.4427 24.9043 91.3416 26.1235 89.7141 26.1235C88.9085 26.1235 88.1512 25.7207 87.7644 25.1353V28.2773H86.6096ZM87.7429 23.0298C87.7376 24.2759 88.4949 25.1245 89.5315 25.1191C90.5789 25.1245 91.2449 24.2544 91.2449 23.0298C91.2449 21.8052 90.5681 20.9404 89.5315 20.9404C88.5218 20.9404 87.7429 21.8105 87.7429 23.0298ZM93.8013 28.2773V20.0435H94.9454V20.8921C95.3804 20.2959 96.1539 19.9253 96.9166 19.9253C98.5279 19.9253 99.6343 21.1714 99.6343 23.0298C99.6343 24.9043 98.5333 26.1235 96.9058 26.1235C96.1002 26.1235 95.3428 25.7207 94.9561 25.1353V28.2773H93.8013ZM94.9346 23.0298C94.9293 24.2759 95.6866 25.1245 96.7232 25.1191C97.7706 25.1245 98.4366 24.2544 98.4366 23.0298C98.4366 21.8052 97.7598 20.9404 96.7232 20.9404C95.7134 20.9404 94.9346 21.8105 94.9346 23.0298ZM102.137 17.7554V26H100.982V17.7554H102.137ZM103.802 26V20.0435H104.957V26H103.802ZM103.764 19.0981V17.8252H105.037V19.0981H103.764ZM109.28 26.1396C107.524 26.145 106.305 24.8882 106.31 23.0352C106.31 21.2466 107.561 19.9307 109.243 19.9307C110.94 19.936 112.288 21.123 112.121 23.3413H107.502C107.556 24.4478 108.287 25.1675 109.286 25.1675C110.054 25.1621 110.639 24.7593 110.838 24.1416H112.046C111.794 25.3286 110.687 26.1396 109.28 26.1396ZM107.524 22.4819L110.902 22.4658C110.816 21.5366 110.172 20.9082 109.259 20.9028C108.346 20.9028 107.647 21.5581 107.524 22.4819ZM115.897 26.1235C114.302 26.1235 113.174 24.856 113.179 23.019C113.179 21.1606 114.302 19.9253 115.908 19.9307C116.714 19.9253 117.471 20.3281 117.858 20.9136V17.7715H119.012V26H117.868V25.1406C117.439 25.7422 116.665 26.1235 115.897 26.1235ZM114.377 23.019C114.377 24.2383 115.054 25.1084 116.091 25.1084C117.1 25.1084 117.879 24.2329 117.879 23.019C117.884 21.7729 117.127 20.9297 116.091 20.9297C115.043 20.9297 114.377 21.7891 114.377 23.019ZM123.593 26V18.0615H128.315V19.1089H124.764V21.5635H128.073V22.5947H124.764V26H123.593ZM129.673 26V20.0435H130.828V26H129.673ZM129.636 19.0981V17.8252H130.909V19.0981H129.636ZM133.621 22.5249V26H132.461V20.0435H133.589V20.8599C133.932 20.2959 134.615 19.9253 135.377 19.9253C136.639 19.9307 137.477 20.7739 137.477 22.1704V26H136.317V22.3638C136.317 21.4722 135.845 20.9404 135.06 20.9458C134.244 20.9458 133.621 21.5957 133.621 22.5249ZM141.532 26.1235C139.942 26.1235 138.788 24.856 138.788 23.0137C138.788 21.166 139.937 19.9253 141.543 19.9307C142.408 19.9253 143.095 20.3335 143.455 20.8813V20.0435H144.61V26H143.466V25.1353C143.068 25.71 142.354 26.1235 141.532 26.1235ZM139.991 23.019C139.991 24.2437 140.662 25.1138 141.699 25.1138C142.752 25.1138 143.493 24.2598 143.498 23.0137C143.498 21.7729 142.752 20.9243 141.699 20.9243C140.651 20.9243 139.991 21.7891 139.991 23.019ZM147.403 22.5249V26H146.243V20.0435H147.37V20.8599C147.714 20.2959 148.396 19.9253 149.159 19.9253C150.421 19.9307 151.259 20.7739 151.259 22.1704V26H150.099V22.3638C150.099 21.4722 149.626 20.9404 148.842 20.9458C148.026 20.9458 147.403 21.5957 147.403 22.5249ZM155.513 26.1289C153.735 26.1235 152.548 24.8452 152.548 23.0352C152.548 21.209 153.724 19.936 155.454 19.9307C156.968 19.9307 158.08 20.8599 158.241 22.1973H157.027C156.861 21.4722 156.259 20.9404 155.464 20.9404C154.428 20.9404 153.74 21.7783 153.74 23.0244C153.74 24.2866 154.444 25.1191 155.507 25.1191C156.238 25.1191 156.861 24.6465 157.017 23.9268H158.231C158.027 25.2427 156.974 26.1289 155.513 26.1289ZM162.232 26.1396C160.476 26.145 159.256 24.8882 159.262 23.0352C159.262 21.2466 160.513 19.9307 162.194 19.9307C163.892 19.936 165.24 21.123 165.073 23.3413H160.454C160.508 24.4478 161.238 25.1675 162.237 25.1675C163.005 25.1621 163.591 24.7593 163.789 24.1416H164.998C164.746 25.3286 163.639 26.1396 162.232 26.1396ZM160.476 22.4819L163.854 22.4658C163.768 21.5366 163.123 20.9082 162.21 20.9028C161.297 20.9028 160.599 21.5581 160.476 22.4819Z" fill="#56E2F5"/>
<defs>
<clipPath id="clip0_1_2">
<rect width="62" height="32" fill="white"/>
</clipPath>
</defs>
</svg>
