<svg width="40" height="40" viewBox="0 0 40 40" fill="none" xmlns="http://www.w3.org/2000/svg">
<rect width="40" height="40" rx="20" fill="white" fill-opacity="0.1"/>
<g clip-path="url(#clip0_1_85)">
<path d="M28.8323 28.375C26.7634 28.375 24.7194 27.9242 22.7002 27.0225C20.681 26.1208 18.8438 24.842 17.1887 23.1863C15.5336 21.5305 14.2552 19.6934 13.3535 17.6748C12.4518 15.6563 12.0007 13.6122 12 11.5427C12 11.2448 12.0993 10.9965 12.2979 10.7979C12.4965 10.5993 12.7448 10.5 13.0427 10.5H17.0646C17.2963 10.5 17.5032 10.5788 17.6852 10.7363C17.8673 10.8939 17.9749 11.0799 18.008 11.2944L18.6535 14.7701C18.6866 15.035 18.6783 15.2584 18.6286 15.4405C18.579 15.6225 18.488 15.7797 18.3556 15.9122L15.9474 18.3451C16.2784 18.9575 16.6713 19.5491 17.1262 20.1197C17.581 20.6904 18.0818 21.2409 18.6286 21.7712C19.1417 22.2843 19.6796 22.7603 20.2424 23.1992C20.8051 23.6381 21.4009 24.0393 22.0299 24.4028L24.3635 22.0691C24.5125 21.9201 24.7071 21.8086 24.9475 21.7344C25.1878 21.6603 25.4235 21.6394 25.6545 21.6719L29.0806 22.367C29.3123 22.4332 29.5026 22.5534 29.6516 22.7275C29.8005 22.9016 29.875 23.0959 29.875 23.3104V27.3323C29.875 27.6302 29.7757 27.8785 29.5771 28.0771C29.3785 28.2757 29.1302 28.375 28.8323 28.375Z" fill="white"/>
</g>
<defs>
<clipPath id="clip0_1_85">
<rect width="18" height="18" fill="white" transform="translate(12 11)"/>
</clipPath>
</defs>
</svg>
