<svg width="20" height="20" viewBox="0 0 20 20" fill="none" xmlns="http://www.w3.org/2000/svg">
<path d="M17.8323 18.375C15.7634 18.375 13.7194 17.9242 11.7002 17.0225C9.68096 16.1208 7.84381 14.842 6.18872 13.1863C4.53362 11.5305 3.25523 9.69338 2.35353 7.67483C1.45184 5.65628 1.00066 3.61224 1 1.54271C1 1.24479 1.09931 0.996528 1.29792 0.797917C1.49653 0.599306 1.74479 0.5 2.04271 0.5H6.06458C6.2963 0.5 6.50318 0.578782 6.68524 0.736347C6.8673 0.893912 6.97488 1.07994 7.00799 1.29444L7.65347 4.77014C7.68657 5.03495 7.6783 5.25839 7.62865 5.44045C7.57899 5.62251 7.48796 5.77975 7.35556 5.91215L4.9474 8.34514C5.27841 8.95752 5.67133 9.54905 6.12615 10.1197C6.58097 10.6904 7.0818 11.2409 7.62865 11.7712C8.14172 12.2843 8.67963 12.7603 9.24236 13.1992C9.80509 13.6381 10.4009 14.0393 11.0299 14.4028L13.3635 12.0691C13.5125 11.9201 13.7071 11.8086 13.9475 11.7344C14.1878 11.6603 14.4235 11.6394 14.6545 11.6719L18.0806 12.367C18.3123 12.4332 18.5026 12.5534 18.6516 12.7275C18.8005 12.9016 18.875 13.0959 18.875 13.3104V17.3323C18.875 17.6302 18.7757 17.8785 18.5771 18.0771C18.3785 18.2757 18.1302 18.375 17.8323 18.375Z" fill="white"/>
</svg>
