<svg width="40" height="40" viewBox="0 0 40 40" fill="none" xmlns="http://www.w3.org/2000/svg">
<g clip-path="url(#clip0_1_95)">
<rect width="40" height="40" rx="20" fill="#4CAF51"/>
<path d="M25.2876 14.6825C24.5999 13.9881 23.7809 13.4375 22.8782 13.0628C21.9756 12.6881 21.0074 12.4968 20.0301 12.5C15.9351 12.5 12.5976 15.8375 12.5976 19.9325C12.5976 21.245 12.9426 22.52 13.5876 23.645L12.5376 27.5L16.4751 26.465C17.5626 27.0575 18.7851 27.3725 20.0301 27.3725C24.1251 27.3725 27.4626 24.035 27.4626 19.94C27.4626 17.9525 26.6901 16.085 25.2876 14.6825ZM20.0301 26.1125C18.9201 26.1125 17.8326 25.8125 16.8801 25.25L16.6551 25.115L14.3151 25.73L14.9376 23.45L14.7876 23.2175C14.1708 22.2328 13.8433 21.0945 13.8426 19.9325C13.8426 16.5275 16.6176 13.7525 20.0226 13.7525C21.6726 13.7525 23.2251 14.3975 24.3876 15.5675C24.9633 16.1404 25.4195 16.8219 25.7298 17.5725C26.0401 18.3231 26.1982 19.1279 26.1951 19.94C26.2101 23.345 23.4351 26.1125 20.0301 26.1125ZM23.4201 21.4925C23.2326 21.4025 22.3176 20.9525 22.1526 20.885C21.9801 20.825 21.8601 20.795 21.7326 20.975C21.6051 21.1625 21.2526 21.5825 21.1476 21.7025C21.0426 21.83 20.9301 21.845 20.7426 21.7475C20.5551 21.6575 19.9551 21.455 19.2501 20.825C18.6951 20.33 18.3276 19.7225 18.2151 19.535C18.1101 19.3475 18.2001 19.25 18.2976 19.1525C18.3801 19.07 18.4851 18.935 18.5751 18.83C18.6651 18.725 18.7026 18.6425 18.7626 18.5225C18.8226 18.395 18.7926 18.29 18.7476 18.2C18.7026 18.11 18.3276 17.195 18.1776 16.82C18.0276 16.46 17.8701 16.505 17.7576 16.4975H17.3976C17.2701 16.4975 17.0751 16.5425 16.9026 16.73C16.7376 16.9175 16.2576 17.3675 16.2576 18.2825C16.2576 19.1975 16.9251 20.0825 17.0151 20.2025C17.1051 20.33 18.3276 22.205 20.1876 23.0075C20.6301 23.2025 20.9751 23.315 21.2451 23.3975C21.6876 23.54 22.0926 23.5175 22.4151 23.4725C22.7751 23.42 23.5176 23.0225 23.6676 22.5875C23.8251 22.1525 23.8251 21.785 23.7726 21.7025C23.7201 21.62 23.6076 21.5825 23.4201 21.4925Z" fill="white"/>
</g>
<defs>
<clipPath id="clip0_1_95">
<rect width="40" height="40" rx="20" fill="white"/>
</clipPath>
</defs>
</svg>
