<svg width="20" height="20" viewBox="0 0 20 20" fill="none" xmlns="http://www.w3.org/2000/svg">
<path d="M15.8752 4.09143C15.1111 3.31985 14.2011 2.70807 13.1981 2.29173C12.1952 1.87539 11.1195 1.66283 10.0336 1.66643C5.48356 1.66643 1.77522 5.37476 1.77522 9.92476C1.77522 11.3831 2.15856 12.7998 2.87522 14.0498L1.70856 18.3331L6.08356 17.1831C7.29189 17.8414 8.65022 18.1914 10.0336 18.1914C14.5836 18.1914 18.2919 14.4831 18.2919 9.93309C18.2919 7.72476 17.4336 5.64976 15.8752 4.09143ZM10.0336 16.7914C8.80022 16.7914 7.59189 16.4581 6.53356 15.8331L6.28356 15.6831L3.68356 16.3664L4.37522 13.8331L4.20856 13.5748C3.52318 12.4806 3.15933 11.2158 3.15856 9.92476C3.15856 6.14143 6.24189 3.05809 10.0252 3.05809C11.8586 3.05809 13.5836 3.77476 14.8752 5.07476C15.5149 5.71131 16.0218 6.46855 16.3666 7.30253C16.7113 8.13652 16.8871 9.03066 16.8836 9.93309C16.9002 13.7164 13.8169 16.7914 10.0336 16.7914ZM13.8002 11.6581C13.5919 11.5581 12.5752 11.0581 12.3919 10.9831C12.2002 10.9164 12.0669 10.8831 11.9252 11.0831C11.7836 11.2914 11.3919 11.7581 11.2752 11.8914C11.1586 12.0331 11.0336 12.0498 10.8252 11.9414C10.6169 11.8414 9.95022 11.6164 9.16689 10.9164C8.55022 10.3664 8.14189 9.69143 8.01689 9.48309C7.90022 9.27476 8.00022 9.16643 8.10856 9.05809C8.20022 8.96643 8.31689 8.81643 8.41689 8.69976C8.51689 8.58309 8.55856 8.49143 8.62522 8.35809C8.69189 8.21643 8.65856 8.09976 8.60856 7.99976C8.55856 7.89976 8.14189 6.88309 7.97522 6.46643C7.80856 6.06643 7.63356 6.11643 7.50856 6.10809H7.10856C6.96689 6.10809 6.75022 6.15809 6.55856 6.36643C6.37522 6.57476 5.84189 7.07476 5.84189 8.09143C5.84189 9.10809 6.58356 10.0914 6.68356 10.2248C6.78356 10.3664 8.14189 12.4498 10.2086 13.3414C10.7002 13.5581 11.0836 13.6831 11.3836 13.7748C11.8752 13.9331 12.3252 13.9081 12.6836 13.8581C13.0836 13.7998 13.9086 13.3581 14.0752 12.8748C14.2502 12.3914 14.2502 11.9831 14.1919 11.8914C14.1336 11.7998 14.0086 11.7581 13.8002 11.6581Z" fill="white"/>
</svg>
